# xmcd
#
# Track frame offsets: 
#        150
#        14145
#        24847
#        43837
#        62172
#        71205
#        86327
#        98900
#        111780
#        121420
#        127470
#        136942
#        153342
#        163852
#        182657
#        207285
#
# Disc length: 2948 seconds
#
# Revision: 3
# Processed by: cddbd v1.5.2PL0 Copyright (c) Steve Scherf et al.
# Submitted via: ExactAudioCopyFreeDBPlugin 1.0
#
DISCID=e80b8210
DTITLE=Webb Wilder And The Nashvegans - Town and Country
DYEAR=1995
DGENRE=Country/Rock
TTITLE0=Stay Out Of Automobiles
TTITLE1=Nashville Bum
TTITLE2=Slow Death
TTITLE3=(I'm A) Lover Not A Fighter
TTITLE4=To The Loving Public
TTITLE5=Honky Tonk Hell
TTITLE6=My Mind's Eye
TTITLE7=Too Many Rivers
TTITLE8=Goldfinger
TTITLE9=Hissy-Fit
TTITLE10=Talk Talk
TTITLE11=Streets Of Laredo (The Cowboy's Lament)
TTITLE12=Short On Love
TTITLE13=I Ain't Living Long Like This
TTITLE14=Original Mixed-Up Kid
TTITLE15=Rockin' Little Angel
EXTD=YEAR: 1995
EXTT0=
EXTT1=
EXTT2=
EXTT3=
EXTT4=
EXTT5=
EXTT6=
EXTT7=
EXTT8=
EXTT9=
EXTT10=
EXTT11=
EXTT12=
EXTT13=
EXTT14=
EXTT15=
PLAYORDER=
